<?xml version="1.0" encoding="UTF-8"?>
<svg id="Layer_2" data-name="Layer 2" xmlns="http://www.w3.org/2000/svg" viewBox="0 0 270 60">
  <defs>
    <style>
      .cls-1 {
        fill: #101820;
      }

      .cls-1, .cls-2 {
        stroke-width: 0px;
      }

      .cls-2 {
        fill: #0071ce;
      }
    </style>
  </defs>
  <g id="Layer_1-2" data-name="Layer 1">
    <g>
      <g>
        <path class="cls-1" d="m262.03,22.6c-.81-.48-1.44-1.15-1.91-1.99-.46-.84-.69-1.78-.69-2.79s.23-1.94.69-2.77c.46-.83,1.09-1.49,1.9-1.97.8-.48,1.71-.72,2.71-.72s1.91.24,2.71.72c.8.48,1.43,1.14,1.89,1.98.45.84.68,1.77.68,2.78s-.23,1.95-.68,2.78c-.45.84-1.08,1.5-1.88,1.98s-1.69.72-2.7.72-1.91-.24-2.72-.72m4.92-.77c.67-.41,1.2-.97,1.58-1.67.39-.7.58-1.48.58-2.32s-.19-1.62-.58-2.33c-.39-.71-.92-1.27-1.58-1.68-.67-.41-1.41-.61-2.23-.61s-1.56.2-2.24.61c-.68.41-1.21.97-1.59,1.67-.39.7-.58,1.48-.58,2.32s.19,1.62.58,2.33c.39.71.92,1.27,1.59,1.68.68.41,1.42.61,2.24.61s1.56-.2,2.23-.61m-4.43-7.03h2.21c1.52,0,2.29.59,2.29,1.77,0,.59-.08,1.03-.23,1.32-.15.29-.42.52-.79.69l1.1,2.31h-1.22l-1-2.15h-1.18v2.15h-1.16v-6.09Zm2.33,3c.36,0,.62-.08.78-.24.16-.16.24-.42.24-.78,0-.68-.41-1.03-1.24-1.03h-.96v2.05h1.18Z"/>
        <g>
          <path class="cls-1" d="m66.78,44.62c-2.76,0-4.8-.8-6.11-2.39-1.32-1.59-1.98-4.49-1.98-8.7v-14.51h-4.32v-5.86h4.32V4.61h7.46v8.56h6.47v5.86h-6.47v12.17c0,2.88.27,4.76.81,5.63.54.87,1.59,1.31,3.15,1.31.72,0,1.44-.09,2.16-.27l.9,5.68c-2.22.72-4.35,1.08-6.38,1.08Z"/>
          <path class="cls-1" d="m78.16,1.32c.87-.87,1.93-1.31,3.19-1.31s2.32.44,3.19,1.31c.87.87,1.3,1.97,1.3,3.29s-.44,2.39-1.3,3.2c-.87.81-1.93,1.22-3.19,1.22s-2.32-.41-3.19-1.22c-.87-.81-1.3-1.88-1.3-3.2s.43-2.42,1.3-3.29Zm-.58,32.4V13.26h7.37v20.46c0,1.68.19,2.85.58,3.51.39.66,1.24.99,2.56.99.36,0,.72-.03,1.08-.09l.54,5.41c-1.26.36-2.76.54-4.5.54-2.82,0-4.8-.86-5.93-2.57-1.14-1.71-1.71-4.31-1.71-7.79Z"/>
          <path class="cls-1" d="m93.67,43.72V13.26h7.46v3.97c.6-1.38,1.77-2.54,3.51-3.47,1.74-.93,3.78-1.4,6.11-1.4,5.09,0,8.51,2.04,10.25,6.13,1.92-4.08,5.54-6.13,10.88-6.13,8.15,0,12.23,4.57,12.23,13.7v17.66h-7.46v-17.66c0-5.23-2.22-7.84-6.65-7.84-4.92,0-7.37,2.61-7.37,7.84v17.66h-7.37v-17.66c0-5.23-2.22-7.84-6.65-7.84-2.34,0-4.17.66-5.49,1.98s-1.98,3.28-1.98,5.86v17.66h-7.46Z"/>
          <path class="cls-1" d="m153.51,40.2c-2.85-2.94-4.27-6.79-4.27-11.53s1.38-8.65,4.14-11.72c2.76-3.06,6.65-4.6,11.69-4.6s8.77,1.49,11.38,4.46c2.61,2.97,3.91,6.95,3.91,11.94,0,.24-.02.63-.04,1.17-.03.54-.05.9-.05,1.08h-23.38c0,2.64.9,4.7,2.7,6.17,1.8,1.47,4.23,2.21,7.28,2.21,3.36,0,6.59-.81,9.71-2.43l2.7,4.15c-3.48,2.34-7.85,3.51-13.13,3.51-5.58,0-9.79-1.47-12.63-4.42Zm17.13-19.96c-1.44-1.41-3.3-2.12-5.58-2.12s-4.17.72-5.67,2.16c-1.5,1.44-2.34,3.4-2.52,5.86h16.19c-.18-2.52-.99-4.49-2.43-5.9Z"/>
          <path class="cls-1" d="m247.53,13.26l-22.93,46.68-7.73.06,9.43-19.46-12.85-27.29h8.09l8.66,19.23,9.33-19.23h8Z"/>
        </g>
        <path class="cls-2" d="m185.5,0h7.32v33.86c0,3.13.36,4.47,3.12,4.47.36,0,.54,0,1.07-.09l.54,5.45c-1.25.36-2.41.54-4.46.54-5.89,0-7.58-3.85-7.58-10.37V0Z"/>
        <path class="cls-2" d="m201.45,0h7.32v33.86c0,3.13.36,4.47,3.12,4.47.36,0,.54,0,1.07-.09l.54,5.45c-1.25.36-2.41.54-4.46.54-5.89,0-7.58-3.85-7.58-10.37V0Z"/>
      </g>
      <g>
        <rect class="cls-2" x="14.64" y="19.27" width="24.38" height="9.77"/>
        <path class="cls-2" d="m9.75,24.16c0-2.7-2.18-4.89-4.88-4.89-2.69,0-4.88,2.19-4.88,4.89s2.18,4.89,4.88,4.89,4.88-2.19,4.88-4.89"/>
        <g>
          <rect class="cls-2" x="0" y="4.61" width="24.39" height="9.77"/>
          <rect class="cls-2" x="0" y="33.93" width="13.71" height="9.77"/>
          <rect class="cls-2" x="18.59" y="33.93" width="20.42" height="9.77"/>
          <rect class="cls-2" x="29.26" y="4.61" width="9.75" height="9.77"/>
        </g>
      </g>
    </g>
  </g>
</svg>